# xmcd
#
# Track frame offsets: 
#        150
#        15775
#        46235
#        65947
#        92435
#
# Disc length: 1653 seconds
#
# Revision: 2
# Processed by: cddbd v1.5.2PL0 Copyright (c) Steve Scherf et al.
# Submitted via: ExactAudioCopy v1.1
#
DISCID=32067305
DTITLE=Solid Base - This Is How We Do It (Maxi)
DYEAR=1999
DGENRE=Pop
TTITLE0=This Is How We Do It (Airplay Edit)
TTITLE1=This Is How We Do It (DJ Valium Remix)
TTITLE2=This Is How We Do It (Extended Mix)
TTITLE3=This Is How We Do It (Sezam's Remix)
TTITLE4=This Is How We Do It (DJ Zeb's Clubmix)
EXTD=
EXTT0=
EXTT1=
EXTT2=
EXTT3=
EXTT4=
PLAYORDER=
